#!OML:ASF E:\emotionWalksFemale\Project 1\Capture day 1\Session 1\Female1.ASF
:FULLY-SPECIFIED
:DEGREES
1182
root 9.62455 15.3126 -28.567 176.735 1.57712 -176.498
lowerback 4.57243 0.675631 3.82102
upperback -5.60868 1.62715 1.53142
thorax -8.42539 0.728427 -0.732768
lowerneck -13.5274 -1.3915 -3.69232
upperneck 23.0132 -2.7348 3.04531
head 9.58855 -1.62472 1.28187
rclavicle 1.67973e-014 3.57812e-014
rhumerus 34.1653 20.3877 -42.6863
rradius 29.598
rwrist 12.7766
rhand -1.53271 -45.4968
rfingers 7.12502
rthumb 24.1215 -74.0004
lclavicle 1.67973e-014 3.57812e-014
lhumerus 28.3378 -17.0331 50.0304
lradius 29.5185
lwrist -23.3594
lhand 1.00613 -39.9279
lfingers 7.12502
lthumb 26.5537 -11.7692
rfemur 26.5304 13.7111 32.1126
rtibia -2.22639e-014
rfoot -8.06772 -26.4072
rtoes 8.18545
lfemur -31.4209 -33.2016 -0.546577
ltibia 26.0124
lfoot -41.0027 33.0767
ltoes 14.5532
1183
root 9.58273 15.3048 -28.6822 176.742 1.87389 -176.278
lowerback 4.62438 0.689657 3.9023
upperback -5.69628 1.66407 1.50928
thorax -8.54816 0.74008 -0.807729
lowerneck -13.1705 -1.22983 -3.6499
upperneck 22.8283 -2.58571 3.26909
head 9.4521 -1.53365 1.37215
rclavicle 1.74931e-014 4.96962e-015
rhumerus 33.9617 20.1919 -43.1619
rradius 29.5264
rwrist 13.0503
rhand -1.51002 -45.4941
rfingers 7.12502
rthumb 24.1433 -73.9948
lclavicle 1.74931e-014 4.96962e-015
lhumerus 28.4284 -17.5602 49.5139
lradius 29.5597
lwrist -22.8811
lhand 0.778834 -39.816
lfingers 7.12502
lthumb 26.3361 -11.6246
rfemur 26.8652 13.4778 32.0761
rtibia -4.13472e-014
rfoot -7.55487 -26.0145
rtoes 6.13829
lfemur -31.4022 -34.1496 -0.0083741
ltibia 25.8078
lfoot -43.0551 32.7946
ltoes 19.9545
1184
root 9.53931 15.292 -28.7975 176.831 2.13885 -175.99
lowerback 4.52386 0.696833 4.06712
upperback -5.75264 1.69361 1.51575
thorax -8.54673 0.747439 -0.895152
lowerneck -13.3667 -1.27418 -3.20211
upperneck 23.1586 -2.60885 2.57363
head 9.59173 -1.59032 1.0504
rclavicle 1.28962e-014 1.98785e-015
rhumerus 33.9271 20.37 -42.9792
rradius 29.6403
rwrist 12.6383
rhand -1.56955 -45.5614
rfingers 7.12502
rthumb 24.0862 -74.0696
lclavicle 1.28962e-014 1.98785e-015
lhumerus 28.4271 -17.9024 49.1314
lradius 29.7024
lwrist -22.5878
lhand 0.839647 -39.9182
lfingers 7.12502
lthumb 26.3944 -11.7355
rfemur 27.1865 13.2402 32.0518
rtibia -4.13472e-014
rfoot -7.67227 -25.4217
rtoes 6.02978
lfemur -31.3093 -34.3769 0.285224
ltibia 25.6319
lfoot -41.3703 33.8738
ltoes 15.6333
1185
root 9.49606 15.2827 -28.9152 176.941 2.38241 -175.811
lowerback 4.30124 0.692726 4.05956
upperback -5.75543 1.6837 1.55941
thorax -8.42065 0.749671 -0.839523
lowerneck -13.4112 -1.38186 -3.32078
upperneck 23.0312 -2.72089 2.61053
head 9.56134 -1.64152 1.07003
rclavicle -8.00108e-015 1.43125e-014
rhumerus 33.9791 20.498 -42.7328
rradius 29.7494
rwrist 12.4505
rhand -1.55683 -45.7143
rfingers 7.12502
rthumb 24.0984 -74.221
lclavicle -8.00108e-015 1.43125e-014
lhumerus 28.3086 -17.5378 49.4254
lradius 29.6788
lwrist -22.9856
lhand 1.23505 -40.3447
lfingers 7.12502
lthumb 26.7728 -12.2193
rfemur 27.4157 12.9951 31.9069
rtibia 9.54166e-015
rfoot -7.19235 -24.973
rtoes 4.26222
lfemur -31.0554 -34.2343 0.248493
ltibia 25.4404
lfoot -40.8815 34.6656
ltoes 11.9133
1186
root 9.4489 15.2701 -29.0348 177.032 2.63998 -175.64
lowerback 4.07102 0.683664 4.03284
upperback -5.71818 1.65882 1.5992
thorax -8.24734 0.745076 -0.775141
lowerneck -13.7257 -1.37725 -3.5611
upperneck 23.1224 -2.70949 2.89281
head 9.65987 -1.6193 1.20808
rclavicle -1.56916e-014 1.04362e-015
rhumerus 34.0234 20.4056 -42.7451
rradius 29.7099
rwrist 12.6058
rhand -1.66485 -45.9023
rfingers 7.12502
rthumb 23.9948 -74.4226
lclavicle -1.56916e-014 1.04362e-015
lhumerus 28.2822 -17.1911 49.5688
lradius 29.6049
lwrist -23.1876
lhand 1.24485 -40.9122
lfingers 7.12502
lthumb 26.7822 -12.7882
rfemur 27.6992 12.7675 31.7442
rtibia 4.45278e-014
rfoot -6.46637 -24.4986
rtoes 3.03052
lfemur -30.7526 -34.2542 0.234321
ltibia 25.2576
lfoot -42.0629 33.3814
ltoes 16.6243
